<svg width="192" height="192" viewBox="0 0 192 192" xmlns="http://www.w3.org/2000/svg">
  <rect width="192" height="192" rx="32" fill="#f97316"/>
  <g transform="translate(48, 48)">
    <!-- Heart shape -->
    <path d="M48 76 C48 64, 40 56, 28 56 C16 56, 8 64, 8 76 C8 88, 48 120, 48 120 C48 120, 88 88, 88 76 C88 64, 80 56, 68 56 C56 56, 48 64, 48 76 Z" 
          fill="white"/>
    
    <!-- Sparkles -->
    <g fill="rgba(255,255,255,0.8)">
      <circle cx="16" cy="32" r="2"/>
      <circle cx="80" cy="28" r="1.5"/>
      <circle cx="24" cy="88" r="1.5"/>
      <circle cx="72" cy="92" r="2"/>
      <circle cx="88" cy="48" r="1"/>
      <circle cx="8" cy="52" r="1"/>
    </g>
    
    <!-- Plus sign overlay -->
    <g fill="#f97316">
      <rect x="46" y="36" width="4" height="12" rx="2"/>
      <rect x="40" y="40" width="16" height="4" rx="2"/>
    </g>
  </g>
</svg>