<!-- Generator: Adobe Illustrator 26.0.0, SVG Export Plug-In . SVG Version: 6.00 Build 0)  -->
<svg version="1.1" xmlns="http://www.w3.org/2000/svg" xmlns:xlink="http://www.w3.org/1999/xlink" x="0px" y="0px"
   viewBox="0 0 16 16" style="enable-background:new 0 0 16 16;" xml:space="preserve">
<style type="text/css">
  .st0{fill:#ec4899;}
</style>
<path class="st0" d="M8,0C3.6,0,0,3.6,0,8s3.6,8,8,8s8-3.6,8-8S12.4,0,8,0z M8,15c-3.9,0-7-3.1-7-7s3.1-7,7-7s7,3.1,7,7S11.9,15,8,15z
   M8,4C6.3,4,5,5.3,5,7c0,0.3,0.2,0.5,0.5,0.5S6,7.3,6,7c0-1.1,0.9-2,2-2s2,0.9,2,2c0,0.3,0.2,0.5,0.5,0.5S11,7.3,11,7
  C11,5.3,9.7,4,8,4z M12,9.5c-0.2,0-0.3,0.1-0.4,0.2C10.5,11.2,9.3,12,8,12s-2.5-0.8-3.6-2.3C4.3,9.6,4.2,9.5,4,9.5
  C3.7,9.5,3.5,9.7,3.5,10c0,0.1,0,0.2,0.1,0.3C4.8,12,6.3,13,8,13s3.2-1,4.4-2.7c0.1-0.1,0.1-0.2,0.1-0.3C12.5,9.7,12.3,9.5,12,9.5z"
  />
</svg>